<svg width="70" height="58" viewBox="0 0 70 58" fill="none" xmlns="http://www.w3.org/2000/svg">
<path d="M70 13.1659V13.1659C65.1789 13.1659 61.2707 17.0741 61.2707 21.8952V22.0598V28.5717C61.2707 35.8823 52.6064 39.9651 46.4447 43.8994V43.8994C40.6445 47.603 41.3698 52.5074 43.4606 54.593C45.5514 56.6785 53.9101 56.0935 53.9101 49.9965C53.9101 43.8994 44.8058 41.2205 36.8327 40.3467C28.8597 39.4729 22.1234 43.5322 19.8177 46.2601C17.512 48.988 17.4642 52.6959 19.8177 54.593C22.1712 56.49 27.4412 56.9373 29.9447 52.9355C32.4482 48.9337 33.7322 42.915 22.1712 40.3467C10.6103 37.7783 2 39.2641 2 22.0598C2 4.85547 12.448 2 27.0102 2C28.1047 2 27.6839 13.3177 27.3212 20.2836C27.1708 23.1725 29.4633 25.6168 32.3561 25.6168H54.5783" stroke="#32CF9C" stroke-width="3" stroke-linecap="round" stroke-linejoin="round"/>
</svg>
