<svg width="68" height="54" viewBox="0 0 68 54" fill="none" xmlns="http://www.w3.org/2000/svg">
<path d="M30.8858 29.1039C32.4402 34.3561 38.6817 38.2119 44.7235 36.12C50.7654 34.0281 50.7654 29.1039 49.903 22.1498C49.0407 15.1957 40.6767 10.0729 36.7473 10.0729C32.8179 10.0729 20.9254 10.7777 20.9254 22.1498C20.9254 33.522 30.8858 38.6219 30.8858 38.6219C30.8858 38.6219 10.9579 38.6219 3.44031 32.8095C0.597914 32.8095 6.68781 2.5285 6.68781 2.5285C6.68781 2.5285 22.3458 4.62461 36.7473 2.5285C51.1488 0.432385 66 6.64981 66 6.64981L63.3646 40.9601C63.3646 40.9601 51.5037 42.1473 33.766 44.2568C16.0283 46.3662 2 38.6219 2 38.6219" stroke="#32CF9C" stroke-width="3" stroke-linecap="round" stroke-linejoin="round"/>
<path d="M2 46.7916C2 46.7916 21.0712 54.3681 40.4291 50.9232C59.787 47.4784 63.9016 49.3958 63.9016 49.3958" stroke="#32CF9C" stroke-width="3" stroke-linecap="round" stroke-linejoin="round"/>
</svg>
