<svg width="59" height="60" viewBox="0 0 59 60" fill="none" xmlns="http://www.w3.org/2000/svg">
<g clip-path="url(#clip0)">
<path d="M35.0368 28.5454C35.5055 28.5999 36.0481 28.4295 36.5738 27.9829C35.9123 28.1443 35.3989 28.3376 35.0368 28.5454ZM38.5432 24.2991C42.1606 20.1209 41.6303 9.5092 39.647 5.58385C39.0526 4.40737 37.6303 3.49008 36.241 3.34895C35.0081 3.2237 34.2857 3.6855 34.0905 4.80525C33.5214 8.07166 31.6647 13.8426 29.3929 18.5778C26.0978 25.4461 22.1586 30.0829 17.468 31.354C15.2029 31.9679 13.1687 32.4335 11.3585 32.7364C11.3617 35.1441 11.1108 38.0764 10.668 41.6143C10.5348 42.6782 10.3883 43.7684 10.1913 45.1804C9.31737 51.4454 9.29307 51.6295 9.15592 53.3696C9.06979 54.4624 9.05577 55.292 9.1132 55.8549C9.1247 55.9677 9.13851 56.0636 9.15294 56.1406C11.0679 57.0931 14.3149 56.6713 20.3277 54.9673C20.6431 54.8779 20.9611 54.7872 21.4072 54.6592C24.2979 53.8295 25.2177 53.5754 26.5838 53.2556C29.272 52.6263 32.8956 52.7445 37.5537 53.4216C39.1751 53.6574 40.8659 53.9519 42.8439 54.3323C43.8624 54.5282 47.0152 55.1585 47.4781 55.2482C48.9693 55.5374 49.9055 55.6923 50.5072 55.7427C52.414 55.9025 53.1703 54.7758 53.1703 53.0105C53.1703 51.4532 52.8657 51.0352 52.0793 50.9977C50.1122 50.9041 49.9057 48.0781 51.8384 47.6999C53.9993 47.2771 54.7857 46.5773 54.7857 45.5133C54.7857 44.4221 54.1071 43.7798 52.1934 43.4142C50.1849 43.0305 50.5001 40.067 52.5445 40.1135C54.8285 40.1656 55.5555 39.6042 55.5555 38.1376C55.5555 36.6455 55.0012 36.1834 53.107 36.291C51.1036 36.4049 50.6442 33.5356 52.5831 33.0192C54.2084 32.5862 54.7857 31.9896 54.7857 31.0735C54.7857 28.8736 54.7075 28.8084 49.435 28.1101C43.9816 27.3878 43.9427 27.0886 41.2618 27.5873C41.029 27.6306 42.1222 24.2492 41.9177 24.2991C42.0516 24.1854 38.413 24.4495 38.5432 24.2991ZM0.149775 28.7904C-0.492762 26.0852 0.990307 24.0787 3.48277 23.5163C5.46617 23.0687 7.81798 23.5961 9.15829 24.8983C10.7038 26.3998 11.3533 28.9034 11.3585 32.7364C4.72051 33.847 1.09499 32.7698 0.149775 28.7904ZM6.83462 27.2863C6.35535 26.8207 5.15954 26.5525 4.21695 26.7652C3.43012 26.9428 3.20817 27.2431 3.39298 28.0212C3.69465 29.2912 5.07434 29.9237 7.80982 29.8009C7.62414 28.581 7.30077 27.7392 6.83462 27.2863ZM16.5954 28.1395C20.0897 27.1925 23.4754 23.2073 26.3872 17.138C28.5275 12.6768 30.2902 7.19795 30.8067 4.23389C31.3234 1.26853 33.7087 -0.256199 36.5781 0.0352809C39.0645 0.287844 41.4983 1.85765 42.6226 4.08279C44.5412 7.88011 44.5412 17.138 42.279 24.1895C44.493 24.2274 47.0286 24.4315 49.873 24.8082C56.632 25.7035 58.119 26.9431 58.119 31.0735C58.119 32.228 57.7811 33.2193 57.1466 34.034C58.2704 34.9105 58.8889 36.3005 58.8889 38.1376C58.8889 39.996 58.2195 41.3931 57.0017 42.2865C57.7301 43.1455 58.119 44.2262 58.119 45.5133C58.119 47.3556 57.2871 48.772 55.7725 49.7404C56.2558 50.6049 56.5035 51.7122 56.5035 53.0105C56.5035 56.4709 54.5229 59.4217 50.2286 59.0618C49.4683 58.9981 48.4508 58.8297 46.8431 58.5179C46.3666 58.4255 43.2172 57.7959 42.2139 57.603C40.2817 57.2314 38.638 56.9451 37.0737 56.7177C32.8002 56.0964 29.5191 55.9895 27.3442 56.4986C26.0535 56.8008 25.1583 57.0479 22.3274 57.8604C21.878 57.9894 21.5569 58.0812 21.2372 58.1718C13.9066 60.2492 10.1522 60.6795 7.12426 58.8214C5.74394 57.9743 5.5778 56.3456 5.83296 53.1081C5.97816 51.2658 5.99957 51.1032 6.88996 44.7206C7.08496 43.3227 7.22953 42.2466 7.3604 41.201C8.00992 36.0113 8.17263 32.1844 7.80982 29.8009C9.90302 29.7069 12.7901 29.1707 16.5954 28.1395ZM31.4209 27.9989C30.9705 29.8635 32.3796 31.4239 34.2878 31.7972C36.0907 32.1499 38.0413 31.4414 39.4914 29.7665C40.6385 28.4417 41.5694 26.4736 42.279 24.1895C35.7761 24.0784 32.0482 25.4019 31.4209 27.9989Z" fill="#32CF9C"/>
</g>
<defs>
<clipPath id="clip0">
<rect width="58.8889" height="60" fill="white"/>
</clipPath>
</defs>
</svg>
